<?xml version="1.0" standalone="no"?>
<!DOCTYPE svg PUBLIC "-//W3C//DTD SVG 20010904//EN"
 "http://www.w3.org/TR/2001/REC-SVG-20010904/DTD/svg10.dtd">
<svg version="1.0" xmlns="http://www.w3.org/2000/svg"
 width="284.000000pt" height="284.000000pt" viewBox="0 0 284.000000 284.000000"
 preserveAspectRatio="xMidYMid meet">
<metadata>
Created by potrace 1.14, written by Peter Selinger 2001-2017
</metadata>
<g transform="translate(0.000000,284.000000) scale(0.100000,-0.100000)"
fill="#000000" stroke="none">
<path d="M18 2618 c22 -36 155 -267 195 -338 13 -25 156 -272 317 -550 161
-278 302 -523 315 -545 40 -70 316 -547 355 -615 21 -36 49 -84 62 -106 83
-147 153 -264 158 -264 6 0 45 65 159 264 37 65 276 480 412 715 27 46 49 85
49 86 0 2 17 32 39 66 21 35 115 197 208 359 93 162 212 367 263 455 51 88
101 176 112 195 11 19 47 82 80 140 33 58 69 120 80 138 l20 32 -1422 0 -1422
0 20 -32z m2468 -20 c4 -5 -1188 -2077 -1196 -2078 -3 0 -192 323 -419 718
-228 394 -452 781 -498 860 -45 79 -83 145 -83 148 0 2 -17 33 -39 67 -58 93
-161 275 -161 284 0 8 2388 9 2396 1z m262 -2 c3 -3 -7 -24 -22 -46 -14 -22
-26 -42 -26 -44 0 -3 -22 -43 -49 -88 -51 -87 -255 -440 -300 -519 -249 -439
-928 -1606 -933 -1603 -12 8 -99 163 -95 171 9 17 290 504 442 768 89 154 300
521 470 815 169 294 313 540 320 545 12 10 183 11 193 1z"/>
</g>
</svg>
